<?xml version="1.0" standalone="no"?><!DOCTYPE svg PUBLIC "-//W3C//DTD SVG 1.1//EN" "http://www.w3.org/Graphics/SVG/1.1/DTD/svg11.dtd"><svg t="1552881120873" class="icon" style="" viewBox="0 0 1024 1024" version="1.1" xmlns="http://www.w3.org/2000/svg" p-id="3396" xmlns:xlink="http://www.w3.org/1999/xlink" width="200" height="200"><defs><style type="text/css"></style></defs><path d="M779.276834 222.354204l162.053839 14.710027c10.796904 0.937348 18.622126 10.296507 17.679661 21.280676 0 2.551102-0.435928 4.208858-1.343601 5.835915l-55.897078 160.082952c1.62808 12.378935 2.553149 25.006534 2.553149 38.07313 0 11.234879-0.470721 22.908756-2.302439 34.615379-1.158383 11.186783-3.206018 22.657023-5.976108 34.111912-32.426527 134.825708-134.670166 239.295038-261.578554 291.387463-99.743702 41.139979-214.671221 50.951439-318.561359 25.022906-28.972868-7.262404-57.006342-17.072841-83.672678-29.686113-31.022551-15.195074-60.675918-33.42425-87.793532-54.677297-27.133987-20.792559-52.649104-45.344744-74.939783-72.215742-11.486612-13.550621-9.647731-34.346249 3.668553-46.037523 7.135514-6.306636 16.101723-8.637728 24.834618-7.714705 31.939433 4.211928 62.070684 2.112104 94.241384-8.383948 12.880355-4.228301 25.045419-9.846252 36.554544-16.8559-16.33606-22.661116-28.738531-47.666626-37.939077-73.609485-12.855796-38.793538-18.153452-79.933517-14.71719-119.882368 0.923022-18.21485 16.571421-32.000831 34.480302-30.843472 10.570753 1.408069 19.0908 7.011694 24.598234 15.196097l3.458775 4.443196 0.446162 0.234337 4.146437 4.91494 0.446162 0c14.262842 14.239306 31.725562 23.596418 50.105165 28.02631 13.794168 2.580778 27.588335 2.580778 40.937364 0.469698l0.915859-4.898567c5.062296-31.092136 9.647731-61.701271 26.193569-96.988961 6.9022-15.647375 15.397688-30.15274 24.834618-43.219337 9.179057-14.256702 20.218484-26.666336 31.257911-38.340213 25.515117-26.41358 56.529481-46.975894 90.532923-62.169945 17.024745-7.229658 35.413558-12.847609 54.268998-16.822131 18.621103-3.974521 37.6986-5.836939 56.770981-5.836939 19.09387 0 37.932937 1.861394 56.31868 5.836939 19.295462 3.974521 37.477566 9.591449 54.474682 16.822131l1.608637 0.938372c16.994046 6.791683 32.188096 15.882736 46.898123 25.944905L779.276834 222.354204 779.276834 222.354204zM884.308983 356.257913 884.308983 356.257913l28.744671-82.029248-83.435271-7.246031c21.375843 23.613814 39.307238 51.655474 52.187593 82.71691L884.308983 356.257913 884.308983 356.257913zM183.749466 711.005426 183.749466 711.005426c23.439852 18.46556 48.954969 34.363645 76.543304 47.212278 22.525016 10.734482 46.414099 19.371186 71.247694 25.460882 90.331331 22.657023 190.762695 13.784958 279.014668-22.424732 107.132996-43.724851 195.387016-131.119293 222.974327-245.617024 1.598404-7.950066 3.223415-17.057491 4.588505-26.63359 0.920976-8.419763 1.390673-17.542538 1.390673-26.665313 0-15.882736-1.390673-31.06246-4.38282-44.864814-2.520403-14.70798-7.103792-29.433356-12.628622-42.516326-11.015891-26.632567-27.132964-50.715055-47.571459-71.058382-9.889231-9.79611-21.154809-19.373233-32.639375-27.086915-11.487635-8.184403-23.441898-14.740726-35.17922-20.342304l-1.832741-0.468674c-13.563924-5.836939-27.587312-10.265808-41.825594-13.301957-13.788028-2.799766-28.512381-4.209882-43.913139-4.209882-15.394618 0-30.105668 1.408069-43.905976 4.209882-14.240329 3.036149-28.028357 7.465019-41.811268 13.301957l0-0.218988 0 0.218988c-26.228361 10.984169-49.668213 27.807323-69.885674 47.898917-9.200546 9.123798-17.463744 19.168572-24.599258 29.919427-7.135514 10.296507-13.551644 21.517059-19.0908 33.18889-12.401448 27.574009-16.541745 53.049217-20.898982 79.447447-1.149173 8.185426-2.542916 17.055444-3.903913 24.067138-1.629103 11.7056-9.200546 21.971407-20.687158 26.666336-30.108738 11.67183-62.98552 13.785981-94.241384 7.461949-12.190647-2.566452-23.918759-6.774287-35.405371-12.157901 2.308579 8.182356 4.146437 16.367783 6.901177 24.080441 10.124592 28.497031 25.983791 56.085366 47.803749 80.371492l1.832741 2.112104c10.806113 14.256702 8.286734 35.052331-5.743818 46.035476-25.515117 20.10899-53.094242 35.992749-83.648119 45.804209-13.114692 4.89959-26.665313 8.185426-40.22412 10.530844C175.697069 704.680371 179.610192 707.71652 183.749466 711.005426L183.749466 711.005426zM710.784904 336.400656 710.784904 336.400656c18.386766 0 35.398208 7.714705 47.117111 19.85828 12.424984 12.376888 19.999496 29.684066 19.999496 48.149627 0 19.154245-7.574512 36.44505-19.999496 48.368614-11.718903 12.613272-28.730345 20.327978-47.117111 20.327978-18.856463 0-35.411511-7.716752-47.335075-20.327978-12.42703-11.923564-20.001543-29.214369-20.001543-48.368614 0-18.46556 7.574512-35.772738 20.001543-48.149627C675.371346 344.114338 691.928441 336.400656 710.784904 336.400656L710.784904 336.400656zM730.546993 384.313899 730.546993 384.313899c-5.052063-5.14723-11.954263-8.435113-19.762089-8.435113-8.060583 0-14.71105 3.285836-20.218484 8.435113-5.054109 5.132904-8.275477 12.362562-8.275477 20.092617 0 8.402367 3.220345 15.178701 8.275477 20.562315 5.507434 4.898567 12.159948 8.402367 20.218484 8.402367 7.80885 0 14.71105-3.5038 19.762089-8.402367 5.305843-5.382591 8.29492-12.159948 8.29492-20.562315C738.842936 396.676461 735.850789 389.447826 730.546993 384.313899L730.546993 384.313899z" p-id="3397" fill="#09e2c9"></path></svg>